<svg width="79" height="49" viewBox="0 0 79 49" fill="none" xmlns="http://www.w3.org/2000/svg">
<rect y="6.10352e-05" width="79" height="49" rx="6" fill="#373737"/>
<path d="M30.128 33.2881C35.408 33.2881 39.32 29.6161 39.32 24.6001C39.32 19.5841 35.408 15.9121 30.128 15.9121C24.824 15.9121 20.936 19.6081 20.936 24.6001C20.936 29.5921 24.824 33.2881 30.128 33.2881ZM30.128 29.9761C27.128 29.9761 24.872 27.7921 24.872 24.6001C24.872 21.4081 27.128 19.2241 30.128 19.2241C33.128 19.2241 35.384 21.4081 35.384 24.6001C35.384 27.7921 33.128 29.9761 30.128 29.9761ZM53.738 33.0001H58.274L50.906 23.6881L57.866 16.2001H53.546L46.106 24.0481V16.2001H42.242V33.0001H46.106V28.7521L48.362 26.4001L53.738 33.0001Z" fill="white"/>
</svg>
